<svg xmlns="http://www.w3.org/2000/svg" width="652" height="284" viewBox="0 0 652 284">
  <title>steam-engine-mark-outline</title>
  <g>
    <g>
      <rect x="192.78787" y="-175.33111" width="266.42426" height="634.66223" rx="35.45883" ry="35.45883" transform="translate(184 468) rotate(-90)" style="fill: #fff"/>
      <path d="M607.87227,279.21218H44.12764a39.5036,39.5036,0,0,1-39.459-39.459V44.24636a39.5034,39.5034,0,0,1,39.459-39.458H607.87227a39.5034,39.5034,0,0,1,39.459,39.458V239.7532A39.5036,39.5036,0,0,1,607.87227,279.21218ZM44.12764,12.78836a31.49423,31.49423,0,0,0-31.459,31.458V239.7532a31.49444,31.49444,0,0,0,31.459,31.459H607.87227a31.49444,31.49444,0,0,0,31.459-31.459V44.24636a31.49423,31.49423,0,0,0-31.459-31.458Z"/>
    </g>
    <g>
      <g>
        <path d="M302.06612,69.14676q-13.52344,0-13.52344,10.1875,0,5.68066,3.11035,7.79883,3.10986,2.11816,12.62207,4.23633,9.51123,2.12109,13.47852,5.5,3.9668,3.38086,3.9668,11.13477,0,19.2041-19.9248,19.20313a111.72079,111.72079,0,0,1-16.499-1.5332l-3.24561-.44922.72119-5.77148a154.28709,154.28709,0,0,0,18.66309,1.623q13.3418,0,13.34326-12.53125,0-5.04785-2.93018-7.25781-2.93115-2.209-10.9541-3.74219-10.54834-2.25293-14.96631-5.81445-4.4187-3.55957-4.41748-11.94531,0-16.76953,20.105-16.76953a110.7433,110.7433,0,0,1,15.77783,1.35156l3.06543.45117-.63135,5.85938A169.21643,169.21643,0,0,0,302.06612,69.14676Z"/>
        <path d="M329.47334,70.22879V64.00613h45.0791v6.22266H355.529v56.168h-6.85156v-56.168Z"/>
        <path d="M385.64034,126.39676V64.00613h37.95654V70.137H392.58272V91.68582h25.60449v6.041H392.58272V120.2659h31.01416v6.13086Z"/>
        <path d="M432.25166,126.39676l17.12988-62.39063H464.528l17.12988,62.39063h-6.85156l-4.50781-16.04883h-26.687l-4.50781,16.04883ZM454.611,69.9573l-9.4668,34.16992h23.62109L459.299,69.9573Z"/>
        <path d="M493.73848,126.39676V64.00613h12.53174l17.6709,52.74414L541.612,64.00613h12.53223v62.39063h-6.94238V71.40066h-1.26172l-18.12207,52.74219h-7.75342L501.94307,71.40066h-1.2627v54.99609Z"/>
      </g>
      <g>
        <path d="M283.133,216.56082V154.17019h37.95654v6.13086H290.07491v21.54883h25.60547v6.041H290.07491V210.43h31.01465v6.13086Z"/>
        <path d="M330.736,216.56082V154.17019h12.98242L367.61055,210.43h1.89307V154.17019h6.85205v62.39063h-12.7124l-24.252-56.25977h-1.71338v56.25977Z"/>
        <path d="M414.13155,190.86551v-6.2207h17.22021v30.65234a109.613,109.613,0,0,1-20.28564,2.16406q-13.61426,0-18.8877-7.84375-5.2749-7.84277-5.27441-24.207,0-16.3623,5.27441-24.252,5.27344-7.88965,18.70752-7.88867a88.77015,88.77015,0,0,1,17.40039,1.80273l3.06543.541-.27051,5.76953a118.3897,118.3897,0,0,0-19.38428-1.89258q-10.36816,0-13.97412,5.99609-3.60718,5.99707-3.60645,19.92383,0,13.93066,3.60645,19.92578,3.605,5.99707,13.88428,5.99414a68.349,68.349,0,0,0,12.89258-1.26172V190.86551Z"/>
        <path d="M442.71114,216.56082V154.17019H449.653v62.39063Z"/>
        <path d="M462.635,216.56082V154.17019h12.98291L499.50948,210.43H501.403V154.17019h6.85156v62.39063H495.54268l-24.25244-56.25977h-1.71338v56.25977Z"/>
        <path d="M521.32735,216.56082V154.17019h37.95654v6.13086H528.26924v21.54883h25.60547v6.041H528.26924V210.43h31.01465v6.13086Z"/>
      </g>
    </g>
    <g>
      <path d="M123.35323,226.30594a45.00977,45.00977,0,0,1-31.92676-13.20312l5.65723-5.65625a37.15107,37.15107,0,0,0,52.53906-52.54l-19.39844-19.39844a45.15074,45.15074,0,1,1,63.853-63.85254l-5.65723,5.65625a37.1509,37.1509,0,1,0-52.53857,52.54L155.28,149.25027a45.1294,45.1294,0,0,1-31.92676,77.05566Z"/>
      <path d="M123.35323,212.61062a31.4357,31.4357,0,0,1-31.30566-34.28027l7.96777.7207A23.43429,23.43429,0,1,0,139.924,164.60672L120.52461,145.2073a58.869,58.869,0,0,1,48.126-100.13477l-.87891,7.95117a50.86911,50.86911,0,0,0-41.58984,86.52734l19.39893,19.39941a31.43359,31.43359,0,0,1-22.22754,53.66016Z"/>
      <path d="M123.35323,198.885a17.71013,17.71013,0,0,1-12.52734-30.23535l5.65625,5.65625a9.71737,9.71737,0,1,0,13.74219,0L110.8254,154.90652a72.58319,72.58319,0,0,1,0-102.64941l5.65723,5.65625a64.58375,64.58375,0,0,0,0,91.33691l19.39893,19.39941A17.708,17.708,0,0,1,123.35323,198.885Z"/>
      <path d="M174.67891,232.50222l-5.65723-5.65625a64.65845,64.65845,0,0,0,0-91.33789l-19.39893-19.39844a17.71729,17.71729,0,1,1,25.05566,0l-5.65625-5.65625a9.717,9.717,0,1,0-13.74268,0l19.39941,19.39844A72.667,72.667,0,0,1,174.67891,232.50222Z"/>
      <path d="M123.426,240.05008a59.78885,59.78885,0,0,1-6.57275-.36328l.87891-7.95117A50.86985,50.86985,0,0,0,159.322,145.2073l-19.39844-19.39844A31.4338,31.4338,0,1,1,193.45625,106.429l-7.96777-.7207a23.43434,23.43434,0,1,0-39.90771,14.44434l19.39844,19.39844a58.8731,58.8731,0,0,1-41.55322,100.499Z"/>
    </g>
  </g>
</svg>
