<svg xmlns="http://www.w3.org/2000/svg" width="284" height="284" viewBox="0 0 284 284">
  <title>steam-engine-icon-reverse</title>
  <g>
    <rect x="8.78787" y="8.78787" width="266.42426" height="266.42426" rx="35.45883" ry="35.45883" transform="translate(0 284) rotate(-90)" style="fill: #3f3f3f"/>
    <g>
      <path d="M123.47256,226.30594A44.9991,44.9991,0,0,1,91.5458,213.10281l5.65723-5.65625a37.1509,37.1509,0,1,0,52.53857-52.54l-19.39844-19.39844a45.15091,45.15091,0,0,1,63.85352-63.85254l-5.65723,5.65625a37.15107,37.15107,0,0,0-52.53906,52.54l19.39844,19.39844a45.1294,45.1294,0,0,1-31.92627,77.05566Z" style="fill: #fff"/>
      <path d="M123.47207,212.61062A31.435,31.435,0,0,1,92.1669,178.33035l7.96777.7207a23.43432,23.43432,0,1,0,39.9082-14.44434L120.64395,145.2073a58.869,58.869,0,0,1,48.126-100.13477l-.87891,7.95117a50.86911,50.86911,0,0,0-41.58984,86.52734l19.39844,19.39941a31.43359,31.43359,0,0,1-22.22754,53.66016Z" style="fill: #fff"/>
      <path d="M123.47207,198.885a17.70826,17.70826,0,0,1-12.52783-30.23535l5.65723,5.65625a9.7168,9.7168,0,1,0,13.74219,0l-19.39941-19.39941a72.58437,72.58437,0,0,1,0-102.64941l5.65723,5.65625a64.58493,64.58493,0,0,0,0,91.33691l19.39893,19.39941A17.70826,17.70826,0,0,1,123.47207,198.885Z" style="fill: #fff"/>
      <path d="M174.79776,232.50222l-5.65723-5.65625a64.65845,64.65845,0,0,0,0-91.33789L149.7416,116.10965a17.71729,17.71729,0,1,1,25.05566,0L169.141,110.4534a9.71719,9.71719,0,1,0-13.74219,0l19.39893,19.39844A72.667,72.667,0,0,1,174.79776,232.50222Z" style="fill: #fff"/>
      <path d="M123.54483,240.05008a59.78,59.78,0,0,1-6.57227-.36328l.87891-7.95117a50.86966,50.86966,0,0,0,41.58984-86.52832l-19.39893-19.39844a31.434,31.434,0,1,1,53.5332-19.37988l-7.96777-.7207a23.43453,23.43453,0,1,0-39.9082,14.44434l19.39893,19.39844a58.8731,58.8731,0,0,1-41.55371,100.499Z" style="fill: #fff"/>
    </g>
  </g>
</svg>
