<svg xmlns="http://www.w3.org/2000/svg" width="652" height="284" viewBox="0 0 652 284">
  <title>steam-engine-mark-thin</title>
  <g>
    <g>
      <g>
        <path d="M299.569,64.21917q-14.51733,0-14.51562,11.08887,0,6.49219,3.291,8.74512,3.29,2.25586,12.89258,4.14746,9.60132,1.894,13.70361,5.22949,4.10156,3.33691,4.10205,11.17969,0,10.09863-5.00391,14.56055-5.00317,4.46191-14.65039,4.46289a123.09224,123.09224,0,0,1-16.31836-1.2627l-3.24609-.45117.63135-4.77832a166.1,166.1,0,0,0,19.11377,1.5332q6.76172,0,10.27783-3.291,3.51636-3.29,3.51611-9.64648,0-6.356-3.11035-8.65527-3.1106-2.2998-9.91748-3.56152a84.05157,84.05157,0,0,1-9.9624-2.29883,22.16289,22.16289,0,0,1-5.90527-2.97559,10.68785,10.68785,0,0,1-3.92187-4.958,21.23757,21.23757,0,0,1-1.17187-7.61914q0-16.40771,19.83447-16.4082a123.84159,123.84159,0,0,1,15.50732,1.26172l2.97461.45117-.4502,4.77832A166.86505,166.86505,0,0,0,299.569,64.21917Z"/>
        <path d="M326.9753,65.30023V60.2514h45.0791v5.04883H352.4001v57.61133h-5.58984V65.30023Z"/>
        <path d="M383.323,122.91156V60.2514h37.5957v5.04883H388.9128V88.561h26.59668V93.52H388.9128v24.43262h32.00586v4.959Z"/>
        <path d="M429.75264,122.91156,447.78487,60.2514h13.07227l17.94141,62.66016h-5.499L468.25069,105.601H440.30147l-4.959,17.31055Zm22.08887-57.791L441.654,100.643h25.24414l-10.188-35.52246Z"/>
        <path d="M491.1501,122.91156V60.2514h10.458l19.38379,54.81641L540.28584,60.2514h10.458v62.66016H545.154V66.02191h-1.26172L524.238,120.83832h-6.582l-19.6543-54.81641h-1.26172v56.88965Z"/>
      </g>
      <g>
        <path d="M281.35665,213.07562V150.41546h37.5957v5.04883H286.94649V178.725h26.59619v4.959H286.94649v24.43262h32.00586v4.959Z"/>
        <path d="M328.86885,213.07562V150.41546h10.999l26.23584,57.70117h2.07373V150.41546H373.677v62.66016H362.85811l-26.416-57.61133h-1.9834v57.61133Z"/>
        <path d="M411.81368,186.3891v-4.959h17.03955v30.293q-2.61548.54053-9.1958,1.39746a87.61173,87.61173,0,0,1-10.90918.85645q-13.52344,0-18.75244-7.93359-5.23022-7.93213-5.22949-24.07227a74.43939,74.43939,0,0,1,1.082-13.7041,29.852,29.852,0,0,1,3.78662-10.09766q5.1394-8.6543,19.02295-8.65527a89.56371,89.56371,0,0,1,17.2207,1.71289l2.97461.63184-.27,4.77832a109.90852,109.90852,0,0,0-19.47412-2.07422q-10.91016,0-14.74121,6.53711-3.83276,6.5376-3.83105,20.78125,0,14.24561,3.83105,20.64551,3.8313,6.40283,14.65088,6.40137a80.85,80.85,0,0,0,14.33545-1.44238V186.3891Z"/>
        <path d="M440.573,213.07562V150.41546h5.58984v62.66016Z"/>
        <path d="M459.59541,213.07562V150.41546h10.99951l26.23584,57.70117h2.07373V150.41546H504.404v62.66016H493.58516l-26.4165-57.61133h-1.9834v57.61133Z"/>
        <path d="M517.92745,213.07562V150.41546h37.5957v5.04883H523.51729V178.725H550.114v4.959H523.51729v24.43262h32.00586v4.959Z"/>
      </g>
    </g>
    <path d="M120.53975,220.82269a43.00716,43.00716,0,0,1-30.51221-12.61816l2.82813-2.82812a39.151,39.151,0,1,0,55.36768-55.36816L128.82491,130.6098a43.15078,43.15078,0,0,1,61.02441-61.02441l-2.82812,2.82813A39.1512,39.1512,0,0,0,131.653,127.78167l19.39844,19.39844a43.13038,43.13038,0,0,1-30.51172,73.64258Z"/>
    <path d="M120.53975,207.1264a29.43486,29.43486,0,0,1-29.31348-32.10059l3.9834.36133a25.43437,25.43437,0,1,0,43.31445-15.67969L119.12569,140.309a56.87034,56.87034,0,0,1,46.4917-96.73438l-.43945,3.97656a52.86948,52.86948,0,0,0-43.22412,89.92969l19.39844,19.39844a29.43408,29.43408,0,0,1-20.8125,50.24707Z"/>
    <path d="M120.53926,193.40179A15.70948,15.70948,0,0,1,109.426,166.57855l2.82813,2.82813a11.7175,11.7175,0,1,0,16.5708,0L109.426,150.00824a70.58392,70.58392,0,0,1,0-99.82129l2.82813,2.82813a66.58538,66.58538,0,0,0,0,94.165L131.653,166.57855a15.70948,15.70948,0,0,1-11.11377,26.82324Z"/>
    <path d="M170.4504,227.603l-2.82812-2.82812a66.661,66.661,0,0,0,0-94.165l-19.39893-19.39941a15.717,15.717,0,1,1,22.22705,0l-2.82812-2.82812a11.71715,11.71715,0,1,0-16.5708,0l19.39893,19.39941A70.66394,70.66394,0,0,1,170.4504,227.603Z"/>
    <path d="M120.60957,234.56488a57.90088,57.90088,0,0,1-6.3501-.35059l.43945-3.97656A52.86884,52.86884,0,0,0,157.92305,140.309l-19.39893-19.39844a29.43384,29.43384,0,1,1,50.12646-18.14746l-3.9834-.35937a25.43461,25.43461,0,1,0-43.31494,15.67871l19.39893,19.39844a56.87261,56.87261,0,0,1-40.1416,97.084Z"/>
  </g>
</svg>
