<svg xmlns="http://www.w3.org/2000/svg" width="284" height="284" viewBox="0 0 284 284">
  <title>steam-engine-icon-tiny-outline</title>
  <g>
    <g>
      <rect x="8.78787" y="8.78787" width="266.42426" height="266.42426" rx="35.45883" ry="35.45883" transform="translate(0 284) rotate(-90)" style="fill: #fff"/>
      <path d="M239.75332,279.21215H44.24649a39.5035,39.5035,0,0,1-39.4585-39.459V44.24633a39.50329,39.50329,0,0,1,39.4585-39.458H239.75332a39.5034,39.5034,0,0,1,39.459,39.458V239.75317A39.5036,39.5036,0,0,1,239.75332,279.21215ZM44.24649,12.78833a31.49413,31.49413,0,0,0-31.4585,31.458V239.75317a31.49433,31.49433,0,0,0,31.4585,31.459H239.75332a31.49444,31.49444,0,0,0,31.459-31.459V44.24633a31.49423,31.49423,0,0,0-31.459-31.458Z"/>
    </g>
    <path d="M123.47207,230.32836A48.82813,48.82813,0,0,1,88.71719,215.9309l11.31445-11.3125a33.15046,33.15046,0,1,0,46.88184-46.88184L158.227,146.42211a49.15137,49.15137,0,0,1-34.75488,83.90625Z"/>
    <path d="M177.62588,235.33129l-11.31348-11.31445a60.65312,60.65312,0,0,0,0-85.67969l11.31348-11.31445A76.67237,76.67237,0,0,1,177.62588,235.33129Z"/>
    <path d="M123.47207,202.88305a21.70606,21.70606,0,0,1-15.356-37.0625L119.42959,177.135a5.717,5.717,0,1,0,8.08545,0l11.31348-11.31445a21.70606,21.70606,0,0,1-15.35645,37.0625Z"/>
    <rect x="154.2695" y="109.26377" width="16.00036" height="27.43388" transform="translate(-39.43245 150.76475) rotate(-45.00072)"/>
    <rect x="134.87116" y="128.66252" width="15.99967" height="27.43422" transform="translate(-58.83167 142.722) rotate(-44.99856)"/>
    <rect x="115.47214" y="148.06162" width="16.00036" height="27.43388" transform="translate(-78.23085 134.69449) rotate(-45.00072)"/>
    <path d="M127.515,138.33715a49.15117,49.15117,0,0,1,69.50977-69.51074L185.71133,80.14086a33.15081,33.15081,0,1,0-46.88281,46.88184Z"/>
    <path d="M108.11612,157.73657a76.67326,76.67326,0,0,1,0-108.30859l11.31348,11.31445a60.654,60.654,0,0,0,0,85.67969Z"/>
    <path d="M177.62588,118.93872l-11.31348-11.31445a5.71693,5.71693,0,1,0-8.08545,0l-11.31348,11.31445a21.717,21.717,0,1,1,30.7124,0Z"/>
  </g>
</svg>
