<svg xmlns="http://www.w3.org/2000/svg" width="284" height="284" viewBox="0 0 284 284">
  <title>steam-engine-icon</title>
  <g>
    <path d="M124.34366,225.92653A44.9991,44.9991,0,0,1,92.4169,212.72341l5.65723-5.65625a37.1509,37.1509,0,1,0,52.53857-52.54l-19.39844-19.39844a45.15091,45.15091,0,1,1,63.85352-63.85254l-5.65723,5.65625a37.15107,37.15107,0,0,0-52.53906,52.54l19.39844,19.39844a45.1294,45.1294,0,0,1-31.92627,77.05566Z"/>
    <path d="M124.34317,212.23122A31.435,31.435,0,0,1,93.038,177.95095l7.96777.7207a23.43432,23.43432,0,1,0,39.9082-14.44434L121.515,144.8279A58.869,58.869,0,0,1,169.641,44.69313l-.87891,7.95117a50.86911,50.86911,0,0,0-41.58984,86.52734l19.39844,19.39941a31.43359,31.43359,0,0,1-22.22754,53.66016Z"/>
    <path d="M124.34317,198.50563a17.70826,17.70826,0,0,1-12.52783-30.23535l5.65723,5.65625a9.7168,9.7168,0,1,0,13.74219,0l-19.39941-19.39941a72.58437,72.58437,0,0,1,0-102.64941l5.65723,5.65625a64.58493,64.58493,0,0,0,0,91.33691l19.39893,19.39941a17.70826,17.70826,0,0,1-12.52832,30.23535Z"/>
    <path d="M175.66885,232.12282l-5.65723-5.65625a64.65845,64.65845,0,0,0,0-91.33789L150.6127,115.73024a17.717,17.717,0,1,1,25.05615,0l-5.65723-5.65625a9.71754,9.71754,0,1,0-13.7417,0l19.39893,19.39844A72.667,72.667,0,0,1,175.66885,232.12282Z"/>
    <path d="M124.41592,239.67067a59.78,59.78,0,0,1-6.57227-.36328l.87891-7.95117a50.86974,50.86974,0,0,0,41.58984-86.52832l-19.39893-19.39844a31.434,31.434,0,1,1,53.5332-19.38086l-7.96777-.7207a23.43449,23.43449,0,1,0-39.9082,14.44531l19.39893,19.39844a58.87359,58.87359,0,0,1-41.55371,100.499Z"/>
  </g>
</svg>
