<svg xmlns="http://www.w3.org/2000/svg" width="284" height="284" viewBox="0 0 284 284">
  <title>steam-engine-icon-thin</title>
  <g>
    <path d="M127.33194,223.92816A43.017,43.017,0,0,1,96.81973,211.31l2.82813-2.82812A39.1512,39.1512,0,0,0,155.016,153.11371l-19.39893-19.39941a43.15043,43.15043,0,1,1,61.02441-61.02344L193.81338,75.519a39.15086,39.15086,0,0,0-55.36816,55.36719l19.39893,19.39941a43.13038,43.13038,0,0,1-30.51221,73.64258Z"/>
    <path d="M127.33194,210.23089a29.43544,29.43544,0,0,1-29.31348-32.09961l3.9834.35938a25.43449,25.43449,0,1,0,43.31494-15.67773l-19.39893-19.39844a56.87,56.87,0,0,1,46.4917-96.73437l-.43945,3.97656A52.86936,52.86936,0,0,0,128.746,140.58636l19.39893,19.39844a29.43359,29.43359,0,0,1-20.813,50.24609Z"/>
    <path d="M127.33194,196.51507A15.71724,15.71724,0,0,1,116.21866,169.684l2.82813,2.82813a11.7168,11.7168,0,1,0,16.57031,0l-19.39844-19.39844a70.66423,70.66423,0,0,1,0-99.82227l2.82813,2.82813a66.66126,66.66126,0,0,0,0,94.166L138.44522,169.684a15.71777,15.71777,0,0,1-11.11328,26.83105Z"/>
    <path d="M177.24307,230.70843l-2.82812-2.82812a66.66215,66.66215,0,0,0,0-94.166L155.016,114.31585a15.71673,15.71673,0,1,1,22.22705,0l-2.82812-2.82812a11.717,11.717,0,1,0-16.5708,0l19.39893,19.39844A70.66512,70.66512,0,0,1,177.24307,230.70843Z"/>
    <path d="M127.40127,237.67035a57.892,57.892,0,0,1-6.34961-.35059l.43945-3.97656a52.86884,52.86884,0,0,0,43.22412-89.92871L145.3168,124.01507a29.43349,29.43349,0,1,1,50.126-18.14551l-3.9834-.36133a25.4342,25.4342,0,1,0-43.31445,15.67871l19.39844,19.39941a56.87261,56.87261,0,0,1-40.14209,97.084Z"/>
  </g>
</svg>
