<svg xmlns="http://www.w3.org/2000/svg" width="652" height="284" viewBox="0 0 652 284">
  <title>steam-engine-mark-tiny</title>
  <g>
    <g>
      <g>
        <path d="M307.36788,69.19461q-9.82837,0-9.82715,6.49121a4.91419,4.91419,0,0,0,2.43408,4.418q2.43384,1.53369,11.40479,4.418,8.9707,2.88574,12.57715,6.53613,3.605,3.65186,3.60645,11.22461,0,9.64893-5.86035,14.60547-5.8623,4.96-15.32715,4.959A85.29321,85.29321,0,0,1,289.156,119.6829l-3.24609-.63086,1.2627-9.64746a150.05221,150.05221,0,0,0,18.48242,1.623q9.55518,0,9.55664-7.93359a5.282,5.282,0,0,0-2.209-4.50781q-2.21045-1.623-8.79053-3.5166-10.45972-2.9751-14.74072-7.07715-4.2832-4.10156-4.28223-11.40527,0-9.19482,5.58936-13.7041,5.58911-4.50586,15.32666-4.50781a101.8557,101.8557,0,0,1,16.9502,1.80371l3.24512.63086-.99121,9.82715Q312.59664,69.19559,307.36788,69.19461Z"/>
        <path d="M334.32393,70.45731v-11H379.403v11H363.17452v50.30762H350.73311V70.45731Z"/>
        <path d="M389.49971,120.76493V59.45731h39.66895V70.27665H401.94112v14.335h21.81836V95.25028H401.94112v14.69531h27.22754v10.81934Z"/>
        <path d="M436.56026,120.76493l13.79443-61.30762h23.62158l13.79395,61.30762H475.32832l-2.43408-11.08984h-21.458l-2.43408,11.08984Zm23.44141-51.0293L453.781,98.85672H470.55l-6.22119-29.12109Z"/>
        <path d="M498.22725,120.76493V59.45731h21.1875l10.81885,44.71875,10.81885-44.71875h21.187v61.30762H549.79805V73.34208h-1.35254l-11.99072,44.71777H524.01241L512.02168,73.34208h-1.35205v47.42285Z"/>
      </g>
      <g>
        <path d="M284.82784,210.929V149.62137h39.66943v10.81934H297.26973v14.335H319.0876v10.63867H297.26973v14.69531h27.22754V210.929Z"/>
        <path d="M332.52022,210.929V149.62137h21.00684l14.78564,50.48828h.90186V149.62137H381.656V210.929H361.19014l-15.32666-50.48828h-.90186V210.929Z"/>
        <path d="M418.25948,188.93094V178.11161H436.111v31.8252a137.701,137.701,0,0,1-20.917,2.07422q-14.335,0-19.69922-7.66309-5.36572-7.6626-5.36426-24.34277,0-16.67871,5.58984-24.07227,5.58838-7.3916,19.02295-7.39355a95.34427,95.34427,0,0,1,18.12158,1.89355l3.24609.63086-.36084,9.64746a171.31179,171.31179,0,0,0-17.71631-1.17187q-6.89648,0-9.69141,1.62207-2.79639,1.623-4.10254,5.99609-1.30811,4.374-1.30713,14.96582,0,10.59521,2.61475,14.83105,2.61328,4.23926,10.81836,4.2373l7.4834-.36035V188.93094Z"/>
        <path d="M445.57686,210.929V149.62137h12.44189V210.929Z"/>
        <path d="M469.10762,210.929V149.62137h21.00684l14.78564,50.48828h.90186V149.62137h12.44189V210.929H497.778l-15.32715-50.48828h-.90137V210.929Z"/>
        <path d="M529.33272,210.929V149.62137h39.66943v10.81934h-27.228v14.335h21.81836v10.63867H541.77413v14.69531h27.228V210.929Z"/>
      </g>
    </g>
    <path d="M129.23946,224.67411a48.998,48.998,0,0,1-34.75488-14.373l11.31348-11.31445a33.15081,33.15081,0,1,0,46.88281-46.88184l-19.39893-19.39844A49.15117,49.15117,0,0,1,202.7917,63.19559L191.47823,74.51a33.15081,33.15081,0,1,0-46.88281,46.88184l19.39893,19.39844a49.12843,49.12843,0,0,1-34.75488,83.88379Z"/>
    <path d="M129.23946,197.25321a21.71,21.71,0,0,1-15.356-37.06348L125.197,171.50419a5.7168,5.7168,0,1,0,8.085,0L113.883,152.10379a76.58468,76.58468,0,0,1,.00049-108.30664L125.197,55.11161a60.65283,60.65283,0,0,0,0,85.67871l19.39844,19.40039a21.70655,21.70655,0,0,1-15.356,37.0625Z"/>
    <path d="M183.39278,229.70047,172.0793,218.386a60.65312,60.65312,0,0,0,0-85.67969L152.68086,113.3079a21.71729,21.71729,0,1,1,30.7124-.001l-11.31445-11.3125a5.7171,5.7171,0,1,0-8.084,0l19.39795,19.39746A76.67237,76.67237,0,0,1,183.39278,229.70047Z"/>
  </g>
</svg>
