<svg xmlns="http://www.w3.org/2000/svg" width="284" height="284" viewBox="0 0 284 284">
  <title>steam-engine-icon-tiny</title>
  <g>
    <path d="M129.3583,229.92508A49.001,49.001,0,0,1,94.60342,215.553l11.31348-11.31445a33.15081,33.15081,0,1,0,46.88281-46.88184l-19.39844-19.39844a49.151,49.151,0,0,1,69.50928-69.51074L191.59707,79.762a33.15064,33.15064,0,1,0-46.88232,46.88184l19.39844,19.39844a49.12745,49.12745,0,0,1-34.75488,83.88281Z"/>
    <path d="M129.3583,202.514a21.7166,21.7166,0,0,1-15.35645-37.07227l11.31445,11.3125a5.7171,5.7171,0,1,0,8.08447,0l-19.39844-19.39746a76.58645,76.58645,0,0,1,0-108.30859l11.31348,11.31445a60.65312,60.65312,0,0,0,0,85.67969l19.39893,19.39844A21.7168,21.7168,0,0,1,129.3583,202.514Z"/>
    <path d="M183.51211,234.95145,172.19864,223.637a60.584,60.584,0,0,0,0-85.67871l-19.39893-19.39941a21.717,21.717,0,1,1,30.7124,0l-11.31348-11.31445a5.717,5.717,0,1,0-8.08545,0l19.39893,19.39941a76.58527,76.58527,0,0,1,0,108.30762Z"/>
  </g>
</svg>
