<svg xmlns="http://www.w3.org/2000/svg" width="652" height="284" viewBox="0 0 652 284">
  <title>steam-engine-mark-reverse</title>
  <g>
    <rect x="192.78787" y="-175.33111" width="266.42426" height="634.66223" rx="35.45883" ry="35.45883" transform="translate(184 468) rotate(-90)" style="fill: #3f3f3f"/>
    <g>
      <path d="M123.35323,226.30594a45.00978,45.00978,0,0,1-31.92676-13.20312l5.65723-5.65625a37.15107,37.15107,0,0,0,52.53906-52.54l-19.39844-19.39844a45.15074,45.15074,0,1,1,63.853-63.85254l-5.65723,5.65625a37.1509,37.1509,0,1,0-52.53857,52.54L155.28,149.25027a45.1294,45.1294,0,0,1-31.92676,77.05566Z" style="fill: #fff"/>
      <path d="M123.35323,212.61062a31.4357,31.4357,0,0,1-31.30566-34.28027l7.96777.7207A23.43429,23.43429,0,1,0,139.924,164.60672L120.52461,145.2073a58.869,58.869,0,0,1,48.126-100.13477l-.87891,7.95117a50.86911,50.86911,0,0,0-41.58984,86.52734l19.39893,19.39941a31.43359,31.43359,0,0,1-22.22754,53.66016Z" style="fill: #fff"/>
      <path d="M123.35323,198.885a17.71013,17.71013,0,0,1-12.52734-30.23535l5.65625,5.65625a9.71737,9.71737,0,1,0,13.74219,0L110.8254,154.90652a72.58319,72.58319,0,0,1,0-102.64941l5.65723,5.65625a64.58375,64.58375,0,0,0,0,91.33691l19.39893,19.39941A17.708,17.708,0,0,1,123.35323,198.885Z" style="fill: #fff"/>
      <path d="M174.67891,232.50222l-5.65723-5.65625a64.65845,64.65845,0,0,0,0-91.33789l-19.39893-19.39844a17.71729,17.71729,0,1,1,25.05566,0l-5.65625-5.65625a9.717,9.717,0,1,0-13.74268,0l19.39941,19.39844A72.667,72.667,0,0,1,174.67891,232.50222Z" style="fill: #fff"/>
      <path d="M123.426,240.05008a59.78885,59.78885,0,0,1-6.57275-.36328l.87891-7.95117A50.86985,50.86985,0,0,0,159.322,145.2073l-19.39844-19.39844A31.4338,31.4338,0,1,1,193.45625,106.429l-7.96777-.7207a23.43434,23.43434,0,1,0-39.90771,14.44434l19.39844,19.39844a58.8731,58.8731,0,0,1-41.55322,100.499Z" style="fill: #fff"/>
    </g>
    <g>
      <g>
        <path d="M302.06612,69.14578q-13.52344,0-13.52344,10.1875,0,5.68066,3.11035,7.79883,3.1106,2.11963,12.62207,4.2373,9.51123,2.11963,13.47852,5.5,3.9668,3.38086,3.96729,11.13379,0,19.2041-19.92529,19.2041a111.715,111.715,0,0,1-16.49854-1.5332l-3.24561-.4502.72119-5.77051a154.27292,154.27292,0,0,0,18.6626,1.623q13.3418,0,13.34375-12.53223,0-5.04785-2.93066-7.25781-2.93042-2.20752-10.9541-3.74121-10.54834-2.25293-14.96582-5.81543-4.4187-3.55957-4.418-11.94531,0-16.76953,20.10547-16.76953a110.75471,110.75471,0,0,1,15.77734,1.35254l3.06543.4502-.63086,5.86035A169.31073,169.31073,0,0,0,302.06612,69.14578Z" style="fill: #fff"/>
        <path d="M329.47383,70.22781V64.00613h45.07861v6.22168H355.5295v56.168h-6.85205v-56.168Z" style="fill: #fff"/>
        <path d="M385.64034,126.39578V64.00613h37.957V70.137H392.58272V91.68484h25.605v6.041h-25.605v22.53906h31.01465v6.13086Z" style="fill: #fff"/>
        <path d="M432.25166,126.39578l17.12988-62.38965h15.147l17.12988,62.38965h-6.85205l-4.50781-16.04785H443.612l-4.50781,16.04785ZM454.611,69.9573l-9.4668,34.16992h23.62158L459.29952,69.9573Z" style="fill: #fff"/>
        <path d="M493.739,126.39578V64.00613h12.53174l17.6709,52.74316,17.6709-52.74316h12.53223v62.38965h-6.94238V71.39969h-1.26221l-18.12158,52.74219h-7.75342L501.94307,71.39969h-1.26221v54.99609Z" style="fill: #fff"/>
      </g>
      <g>
        <path d="M283.1335,216.55984V154.17019h37.95605v6.13086H290.0754V181.8489h25.605v6.041h-25.605V210.429h31.01416v6.13086Z" style="fill: #fff"/>
        <path d="M330.736,216.55984V154.17019h12.98291L367.611,210.429h1.89307V154.17019h6.85205v62.38965h-12.7124l-24.25244-56.25879h-1.71289v56.25879Z" style="fill: #fff"/>
        <path d="M414.13155,190.86453v-6.2207h17.2207v30.65332a109.61366,109.61366,0,0,1-20.28613,2.16406q-13.61426,0-18.8877-7.84375-5.2749-7.84277-5.27441-24.207,0-16.36377,5.27441-24.25293,5.27417-7.88818,18.708-7.88867a88.699,88.699,0,0,1,17.40039,1.80371l3.06543.541-.27051,5.76953a118.40736,118.40736,0,0,0-19.38428-1.89355q-10.3689,0-13.97412,5.99609-3.60791,5.99707-3.60645,19.9248,0,13.9292,3.60645,19.9248,3.605,5.99707,13.88379,5.99512a68.34126,68.34126,0,0,0,12.89258-1.26172v-19.2041Z" style="fill: #fff"/>
        <path d="M442.71163,216.55984V154.17019h6.94189v62.38965Z" style="fill: #fff"/>
        <path d="M462.63545,216.55984V154.17019h12.98242L499.51,210.429H501.403V154.17019h6.85205v62.38965h-12.7124l-24.252-56.25879h-1.71338v56.25879Z" style="fill: #fff"/>
        <path d="M521.32784,216.55984V154.17019h37.95654v6.13086H528.26973V181.8489h25.605v6.041h-25.605V210.429h31.01465v6.13086Z" style="fill: #fff"/>
      </g>
    </g>
  </g>
</svg>
