<svg xmlns="http://www.w3.org/2000/svg" width="284" height="284" viewBox="0 0 284 284">
  <title>steam-engine-icon-tiny-reverse</title>
  <g>
    <rect x="8.78787" y="8.78787" width="266.42426" height="266.42426" rx="35.45883" ry="35.45883" transform="translate(0 284) rotate(-90)" style="fill: #3f3f3f"/>
    <g>
      <path d="M123.47256,230.30456a48.983,48.983,0,0,1-34.75488-14.37207L100.03116,204.618a33.15064,33.15064,0,1,0,46.88232-46.88184L127.515,138.33777A49.15117,49.15117,0,0,1,197.02481,68.827L185.71133,80.14148A33.151,33.151,0,1,0,138.829,127.02429L158.227,146.42175a49.12745,49.12745,0,0,1-34.75439,83.88281Z" style="fill: #fff"/>
      <path d="M123.47256,202.89343a21.7168,21.7168,0,0,1-15.35693-37.07227l11.31445,11.3125a5.717,5.717,0,1,0,8.08447,0L108.11612,157.7362a76.67326,76.67326,0,0,1,0-108.30859l11.31348,11.31445a60.654,60.654,0,0,0,0,85.67969l19.39893,19.39844a21.7168,21.7168,0,0,1-15.356,37.07324Z" style="fill: #fff"/>
      <path d="M177.62588,235.33093l-11.31348-11.31445a60.58285,60.58285,0,0,0,0-85.67871l-19.39893-19.39941a21.717,21.717,0,1,1,30.7124,0L166.31241,107.6239a5.71676,5.71676,0,1,0-8.08545,0l19.39893,19.39941a76.58409,76.58409,0,0,1,0,108.30762Z" style="fill: #fff"/>
    </g>
  </g>
</svg>
