<svg xmlns="http://www.w3.org/2000/svg" width="428" height="428" viewBox="0 0 428 428">
  <title>steam-engine-coin</title>
  <g>
    <g>
      <path d="M194.60127,297.94822a44.85368,44.85368,0,0,1-31.92676-13.22461l5.65723-5.65625a37.15107,37.15107,0,1,0,52.53906-52.54l-19.39893-19.39844a45.15091,45.15091,0,0,1,63.85352-63.85254l-5.65723,5.65625a37.15107,37.15107,0,1,0-52.53906,52.54L226.528,220.87107a45.15088,45.15088,0,0,1-31.92676,77.07715Z"/>
      <path d="M194.60127,284.23142a31.435,31.435,0,0,1-31.30566-34.28027l7.96777.7207a23.43438,23.43438,0,1,0,39.9082-14.44531L191.77266,216.8281a58.86981,58.86981,0,0,1,48.12549-100.13574l-.87793,7.95117a50.86978,50.86978,0,0,0-41.59033,86.52832l19.39893,19.39844a31.43408,31.43408,0,0,1-22.22754,53.66113Z"/>
      <path d="M245.92647,304.122l-5.65723-5.65625a64.65816,64.65816,0,0,0,0-91.33691l-6.87061-6.87012L200.258,233.39841l6.87109,6.87109a17.717,17.717,0,1,1-25.05566,0l6.87109-6.87109-6.87109-6.87109a72.66675,72.66675,0,0,1,0-102.64941l5.65723,5.65625a64.65816,64.65816,0,0,0,0,91.33691l6.87061,6.87012,33.14063-33.13965-6.87109-6.87109a17.717,17.717,0,1,1,25.05566,0l-6.87109,6.87109,6.87109,6.87109A72.66675,72.66675,0,0,1,245.92647,304.122Zm-51.3252-65.06641-6.87061,6.87012a9.71719,9.71719,0,1,0,13.74121,0Zm38.79736-73.56543a9.71216,9.71216,0,0,0-6.87061,16.584l6.87061,6.87012,6.87061-6.87012a9.7124,9.7124,0,0,0-6.87061-16.584Z"/>
      <path d="M194.67159,311.67087a59.736,59.736,0,0,1-6.56982-.36328l.87793-7.95117A50.86978,50.86978,0,0,0,230.57,216.8281l-19.39844-19.39844A31.434,31.434,0,1,1,264.7043,178.0488l-7.96777-.7207a23.43418,23.43418,0,1,0-39.90771,14.44531l19.39844,19.39844a58.87359,58.87359,0,0,1-41.55566,100.499Z"/>
    </g>
    <g>
      <path d="M82.50557,291.9824q-2.17383-3.67969-4.60547-2.24414a2.139,2.139,0,0,0-1.11572,1.88867,27.40886,27.40886,0,0,0,.86865,5.25,13.70653,13.70653,0,0,1,.334,6.15625,6.69941,6.69941,0,0,1-3.40625,3.834,7.85115,7.85115,0,0,1-6.7666,1.03711,9.9685,9.9685,0,0,1-5.248-4.64453,37.062,37.062,0,0,1-2.999-6.92773l-.48193-1.35547,3.89209-1.66016a65.5852,65.5852,0,0,0,3.48145,7.28125q2.11377,3.57715,5.08594,1.82227a2.29378,2.29378,0,0,0,1.19971-1.82422,13.6281,13.6281,0,0,0-.62793-4.07031q-1.19971-4.57617-.61084-7.08594a6.544,6.544,0,0,1,3.32422-4.127q3.44458-2.03613,6.36963-.93945a10.34163,10.34163,0,0,1,5.0791,4.74414,44.33063,44.33063,0,0,1,3.07471,6.74609l.48145,1.35547-3.8999,1.80273Q83.66206,293.94138,82.50557,291.9824Z"/>
      <path d="M91.68623,307.10935l3.61279-3.13672,12.85547,14.80664L104.5417,321.916l-4.62793-5.33008-16.52539,14.3457-3.54785-4.08594L96.36543,312.498Z"/>
      <path d="M98.47823,346.07419l16.64209-20.83984,13.48389,10.76953-2.937,3.67578L116.4128,332.289l-3.8916,4.873,7.416,5.92188-2.8877,3.61719-7.416-5.92383-3.98926,4.99609,9.25439,7.39063-2.937,3.67773Z"/>
      <path d="M123.03487,364.27732l17.67285-20.85352,9.10645,4.76172-7.03809,26.41211-4.7959-2.50586,1.2959-4.76562-8.27148-4.32422-3.17285,3.7832Zm19.3208-14.94727-8.26709,9.97266,6.46484,3.37891,3.4707-12.47852Z"/>
      <path d="M157.03194,380.40818l6.59473-25.83984,8.93018,2.27734-.25,20.01172L181.677,359.1738l8.93018,2.2793-6.59473,25.83984-5.24414-1.33789,5.10156-19.98828-.57031-.14648-9.86426,17.55859-5.24414-1.33789-.24365-20.13867-.56982-.14453-5.10156,19.98828Z"/>
      <path d="M219.58321,389.375l-2.02881-26.58984,17.20605-1.3125.3584,4.69141-11.80957.90039.47412,6.21875,9.46338-.72266.35205,4.61523-9.46338.7207.48633,6.375,11.80957-.90039.35791,4.69141Z"/>
      <path d="M252.3669,385.40818l-7.38574-25.625,8.78027-2.53125,12.2627,19.32227.377-.10742-6.082-21.10352,5.2002-1.5,7.38525,25.627-8.5542,2.46484L251.862,362.69724l-.377.10938,6.082,21.10352Z"/>
      <path d="M294.04561,359.15232l-2.22607-4.14648,6.8418-3.67383,6.54834,12.19727a60.01017,60.01017,0,0,1-7.58984,5.09961q-5.4939,2.94727-9.12646,1.11523-3.63281-1.83105-7.06494-8.22461-3.4314-6.39258-2.81055-10.377.62109-3.98145,5.76953-6.748a41.57143,41.57143,0,0,1,7.335-3.002l1.37354-.42578,1.84668,3.77148a74.378,74.378,0,0,0-7.03076,3.19531,9.00878,9.00878,0,0,0-3.38037,2.61719,4.23659,4.23659,0,0,0-.33887,3.14063,25.66384,25.66384,0,0,0,2.57861,6.00586q2.17969,4.06055,4.05371,5.14648,1.87354,1.084,5.01807-.60352l2.79395-1.67773-2.44873-4.56055Z"/>
      <path d="M318.24873,354.9531,302.0461,333.77146l4.29883-3.28711L322.54756,351.666Z"/>
      <path d="M335.2336,341.04685l-19.54639-18.14258,6.21631-6.69727,20.47266,10.22656.2666-.28906-16.09717-14.93945,3.68164-3.9668,19.54688,18.14258-6.05615,6.52344-20.63281-10.05273-.26709.28711,16.09766,14.94141Z"/>
      <path d="M359.84786,311.58591l-22.80176-13.832L345.99581,283l4.02344,2.44141-6.14258,10.127,5.33154,3.23438,4.92236-8.11523,3.95654,2.40039-4.92187,8.11328,5.46533,3.31641,6.14258-10.127,4.02393,2.44141Z"/>
    </g>
    <path d="M214.0002,422.29392C99.14668,422.29392,5.70625,328.85349,5.70625,214S99.14668,5.706,214.0002,5.706,422.29366,99.14646,422.29366,214,328.85372,422.29392,214.0002,422.29392Zm0-406.58789C104.66036,15.706,15.70625,104.66013,15.70625,214s88.9541,198.29395,198.29395,198.29395c109.33936,0,198.29346-88.9541,198.29346-198.29395S323.33956,15.706,214.0002,15.706Z"/>
    <path d="M56.195,276.55173A168.89027,168.89027,0,0,1,44.29366,214c0-93.57617,76.12988-169.70605,169.70654-169.70605,93.57617,0,169.70605,76.12988,169.70605,169.70605a168.89357,168.89357,0,0,1-11.90088,62.55176l-9.29492-3.6875A158.94693,158.94693,0,0,0,373.70625,214c0-88.0625-71.644-159.70605-159.70605-159.70605C125.9377,54.29392,54.29366,125.93747,54.29366,214a158.93376,158.93376,0,0,0,11.19629,58.86426Z"/>
  </g>
</svg>
