<svg xmlns="http://www.w3.org/2000/svg" width="652" height="284" viewBox="0 0 652 284">
  <title>steam-engine-mark-tiny-reverse</title>
  <g>
    <rect x="192.78787" y="-175.33111" width="266.42426" height="634.66223" rx="35.45883" ry="35.45883" transform="translate(184 468) rotate(-90)" style="fill: #3f3f3f"/>
    <g>
      <path d="M123.35323,230.30456a49.001,49.001,0,0,1-34.75488-14.37207L99.91182,204.618a33.15081,33.15081,0,1,0,46.88281-46.88184L127.3962,138.33777A49.151,49.151,0,0,1,196.90547,68.827L185.592,80.14148a33.15064,33.15064,0,1,0-46.88232,46.88184l19.39844,19.39844a49.12745,49.12745,0,0,1-34.75488,83.88281Z" style="fill: #fff"/>
      <path d="M123.35372,202.89343a21.7166,21.7166,0,0,1-15.35693-37.07227l11.31445,11.3125a5.7171,5.7171,0,1,0,8.08447,0L107.99727,157.7362a76.67237,76.67237,0,0,1,0-108.30859l11.31348,11.31445a60.65312,60.65312,0,0,0,0,85.67969l19.39893,19.39844a21.7168,21.7168,0,0,1-15.356,37.07324Z" style="fill: #fff"/>
      <path d="M177.507,235.33093l-11.31348-11.31445a60.584,60.584,0,0,0,0-85.67871l-19.39893-19.39941a21.717,21.717,0,1,1,30.7124,0L166.19356,107.6239a5.717,5.717,0,1,0-8.08545,0L177.507,127.02331a76.58527,76.58527,0,0,1,0,108.30762Z" style="fill: #fff"/>
    </g>
    <g>
      <g>
        <path d="M301.48165,74.826q-9.82837,0-9.82715,6.49023a4.91312,4.91312,0,0,0,2.43408,4.418q2.43457,1.53516,11.40527,4.418,8.97,2.88574,12.57715,6.53711,3.605,3.65039,3.606,11.22461,0,9.64746-5.85986,14.60547-5.8623,4.96-15.32715,4.959a85.36791,85.36791,0,0,1-17.22021-2.16406l-3.24561-.63086,1.26221-9.64844a150.05221,150.05221,0,0,0,18.48242,1.623q9.55518,0,9.55664-7.93359a5.28275,5.28275,0,0,0-2.2085-4.50781q-2.21045-1.623-8.791-3.51562-10.459-2.97656-14.74023-7.07812-4.2832-4.10156-4.28271-11.4043,0-9.19629,5.58936-13.70508,5.58984-4.50586,15.32715-4.50781a101.75748,101.75748,0,0,1,16.94971,1.80469l3.24561.63086-.9917,9.82617Q306.7104,74.826,301.48165,74.826Z" style="fill: #fff"/>
        <path d="M328.43819,76.08777v-11h45.0791v11H357.28877v50.30859H344.84688V76.08777Z" style="fill: #fff"/>
        <path d="M383.61348,126.39636V65.08777h39.66943V75.90808H396.05538v14.334h21.81836v10.63867H396.05538V115.576h27.22754v10.82031Z" style="fill: #fff"/>
        <path d="M430.67452,126.39636l13.79395-61.30859H468.09l13.79443,61.30859H469.44209L467.008,115.30652H445.55049l-2.43457,11.08984Zm23.44092-51.0293-6.2207,29.12109h16.769l-6.2207-29.12109Z" style="fill: #fff"/>
        <path d="M492.34151,126.39636V65.08777H513.529l10.81836,44.71875L535.1667,65.08777h21.18652v61.30859H543.91182V78.97253h-1.35254l-11.99072,44.71875H518.12666L506.13545,78.97253H504.7834v47.42383Z" style="fill: #fff"/>
      </g>
      <g>
        <path d="M278.94209,216.56042V155.25183H318.611v10.82031H291.3835v14.334h21.81836V191.0448H291.3835v14.69531H318.611v10.82031Z" style="fill: #fff"/>
        <path d="M326.634,216.56042V155.25183h21.00684l14.78564,50.48828h.90186V155.25183h12.44189v61.30859H355.3044l-15.32715-50.48828h-.90137v50.48828Z" style="fill: #fff"/>
        <path d="M412.37373,194.56238V183.74206h17.85107v31.82617a137.70125,137.70125,0,0,1-20.9165,2.07422q-14.335,0-19.69971-7.66406-5.365-7.66113-5.36426-24.3418,0-16.67871,5.58984-24.07227,5.58911-7.3916,19.02295-7.39453a95.35463,95.35463,0,0,1,18.12207,1.89453l3.24561.63086-.36084,9.64648a171.58755,171.58755,0,0,0-17.71582-1.17187q-6.89648,0-9.69189,1.623-2.79565,1.623-4.10205,5.99609-1.30811,4.374-1.30762,14.96484,0,10.59668,2.61475,14.832,2.614,4.23926,10.81885,4.23633l7.4834-.35937V194.56238Z" style="fill: #fff"/>
        <path d="M439.69112,216.56042V155.25183h12.44141v61.30859Z" style="fill: #fff"/>
        <path d="M463.22139,216.56042V155.25183h21.00684l14.78613,50.48828h.90137V155.25183h12.44189v61.30859H491.8918l-15.32666-50.48828h-.90137v50.48828Z" style="fill: #fff"/>
        <path d="M523.44649,216.56042V155.25183h39.66943v10.82031H535.88838v14.334h21.81836V191.0448H535.88838v14.69531h27.22754v10.82031Z" style="fill: #fff"/>
      </g>
    </g>
  </g>
</svg>
