<svg xmlns="http://www.w3.org/2000/svg" width="652" height="284" viewBox="0 0 652 284">
  <title>steam-engine-mark</title>
  <g>
    <g>
      <g>
        <path d="M302.06612,65.66091q-13.52344,0-13.52344,10.1875,0,5.68066,3.11035,7.79883,3.1106,2.11963,12.62207,4.2373,9.51123,2.11963,13.47852,5.5,3.9668,3.38086,3.96729,11.13379,0,19.2041-19.92529,19.2041a111.715,111.715,0,0,1-16.49854-1.5332l-3.24561-.4502.72119-5.77051a154.2729,154.2729,0,0,0,18.6626,1.623q13.3418,0,13.34375-12.53223,0-5.04785-2.93066-7.25781-2.93042-2.20752-10.9541-3.74121-10.54834-2.25293-14.96582-5.81543-4.4187-3.55957-4.418-11.94531,0-16.76953,20.10547-16.76953a110.75471,110.75471,0,0,1,15.77734,1.35254l3.06543.4502-.63086,5.86035A169.31073,169.31073,0,0,0,302.06612,65.66091Z"/>
        <path d="M329.47383,66.74294V60.52126h45.07861v6.22168H355.5295v56.168h-6.85205v-56.168Z"/>
        <path d="M385.64034,122.91091V60.52126h37.957v6.13086H392.58272V88.2h25.605v6.041h-25.605V116.78h31.01465v6.13086Z"/>
        <path d="M432.25166,122.91091l17.12988-62.38965h15.147l17.12988,62.38965h-6.85205l-4.50781-16.04785H443.612l-4.50781,16.04785ZM454.611,66.47243l-9.4668,34.16992h23.62158l-9.46631-34.16992Z"/>
        <path d="M493.739,122.91091V60.52126h12.53174l17.6709,52.74316,17.6709-52.74316h12.53223v62.38965h-6.94238V67.91481h-1.26221L527.81856,120.657h-7.75342L501.94307,67.91481h-1.26221v54.99609Z"/>
      </g>
      <g>
        <path d="M283.1335,213.075V150.68532h37.95605v6.13086H290.0754V178.364h25.605v6.041h-25.605v22.53906h31.01416V213.075Z"/>
        <path d="M330.736,213.075V150.68532h12.98291L367.611,206.94411h1.89307V150.68532h6.85205V213.075h-12.7124l-24.25244-56.25879h-1.71289V213.075Z"/>
        <path d="M414.13155,187.37966V181.159h17.2207v30.65332a109.61366,109.61366,0,0,1-20.28613,2.16406q-13.61426,0-18.8877-7.84375-5.2749-7.84277-5.27441-24.207,0-16.36377,5.27441-24.25293,5.27417-7.88818,18.708-7.88867a88.699,88.699,0,0,1,17.40039,1.80371l3.06543.541-.27051,5.76953a118.40737,118.40737,0,0,0-19.38428-1.89355q-10.3689,0-13.97412,5.99609-3.60791,5.99707-3.60645,19.9248,0,13.9292,3.60645,19.9248,3.605,5.99707,13.88379,5.99512a68.34125,68.34125,0,0,0,12.89258-1.26172v-19.2041Z"/>
        <path d="M442.71163,213.075V150.68532h6.94189V213.075Z"/>
        <path d="M462.63545,213.075V150.68532h12.98242L499.51,206.94411H501.403V150.68532h6.85205V213.075h-12.7124l-24.252-56.25879h-1.71338V213.075Z"/>
        <path d="M521.32784,213.075V150.68532h37.95654v6.13086H528.26973V178.364h25.605v6.041h-25.605v22.53906h31.01465V213.075Z"/>
      </g>
    </g>
    <path d="M123.35323,222.84352a44.85629,44.85629,0,0,1-31.92676-13.22559l5.65723-5.65625a37.15073,37.15073,0,1,0,52.53906-52.53906l-19.39844-19.39941a45.15074,45.15074,0,1,1,63.853-63.85254l-5.65723,5.65625a37.1509,37.1509,0,1,0-52.53857,52.54L155.28,145.76638a45.15137,45.15137,0,0,1-31.92676,77.07715Z"/>
    <path d="M123.35323,209.12575a31.4357,31.4357,0,0,1-31.30566-34.28027l7.96777.7207A23.43429,23.43429,0,1,0,139.924,161.12184l-19.39941-19.39941a58.869,58.869,0,0,1,48.126-100.13477l-.87891,7.95117a50.86911,50.86911,0,0,0-41.58984,86.52734l19.39893,19.39941a31.43384,31.43384,0,0,1-22.22754,53.66016Z"/>
    <path d="M123.35323,195.409a17.71634,17.71634,0,0,1-12.52734-30.24414l5.65625,5.65625a9.71719,9.71719,0,1,0,13.74219,0L110.8254,151.42263a72.667,72.667,0,0,1,0-102.65039l5.65723,5.65625a64.65845,64.65845,0,0,0,0,91.33789l19.39893,19.39844A17.7168,17.7168,0,0,1,123.35323,195.409Z"/>
    <path d="M174.67891,229.01735l-5.65723-5.65625a64.65845,64.65845,0,0,0,0-91.33789l-19.39893-19.39844a17.71729,17.71729,0,1,1,25.05566,0l-5.65625-5.65625a9.717,9.717,0,1,0-13.74268,0L174.67891,126.367A72.667,72.667,0,0,1,174.67891,229.01735Z"/>
    <path d="M123.426,236.5652a59.78888,59.78888,0,0,1-6.57275-.36328l.87891-7.95117A50.86985,50.86985,0,0,0,159.322,141.72243L139.92354,122.324a31.43362,31.43362,0,1,1,53.53271-19.37988l-7.96777-.7207a23.43434,23.43434,0,1,0-39.90771,14.44434l19.39844,19.39844A58.8731,58.8731,0,0,1,123.426,236.5652Z"/>
  </g>
</svg>
